<svg width="500" height="500" viewBox="0 0 500 500" fill="none" xmlns="http://www.w3.org/2000/svg">
<path d="M65.5 65C65.5 63.6193 66.6193 62.5 68 62.5H348C349.381 62.5 350.5 63.6193 350.5 65V87.5H128C107.289 87.5 90.5 104.289 90.5 125V347.5H68C66.6193 347.5 65.5 346.381 65.5 345V65ZM155.5 155C155.5 153.619 156.619 152.5 158 152.5H438C439.381 152.5 440.5 153.619 440.5 155V435C440.5 436.381 439.381 437.5 438 437.5H158C156.619 437.5 155.5 436.381 155.5 435V155Z" fill="white" stroke="white" stroke-width="35"/>
</svg>
