{
    "asset" : {
        "generator" : "Khronos glTF Blender I/O v1.5.6",
        "version" : "2.0"
    },
    "scene" : 0,
    "scenes" : [
        {
            "name" : "Scene",
            "nodes" : [
                0,
                1,
                2,
                3,
                4,
                5
            ]
        }
    ],
    "nodes" : [
        {
            "mesh" : 0,
            "name" : "Buttons"
        },
        {
            "mesh" : 1,
            "name" : "Screen"
        },
        {
            "mesh" : 2,
            "name" : "Flash"
        },
        {
            "mesh" : 3,
            "name" : "Bezel"
        },
        {
            "mesh" : 4,
            "name" : "Lenses"
        },
        {
            "mesh" : 5,
            "name" : "Body"
        }
    ],
    "materials" : [
        {
            "doubleSided" : true,
            "name" : "Buttons.editable",
            "pbrMetallicRoughness" : {
                "baseColorFactor" : [
                    0.36289897561073303,
                    0.36289897561073303,
                    0.36289897561073303,
                    0.36000001430511475
                ],
                "roughnessFactor" : 0.661395788192749
            }
        },
        {
            "doubleSided" : true,
            "name" : "Screen.editable",
            "pbrMetallicRoughness" : {
                "baseColorTexture" : {
                    "index" : 0,
                    "texCoord" : 0
                },
                "metallicFactor" : 0,
                "roughnessFactor" : 0.07185298204421997
            }
        },
        {
            "doubleSided" : true,
            "name" : "Flash",
            "pbrMetallicRoughness" : {
                "baseColorFactor" : [
                    0.6399999856948853,
                    0.48371899127960205,
                    0.26791301369667053,
                    0.36000001430511475
                ],
                "metallicFactor" : 0,
                "roughnessFactor" : 0.6932139992713928
            }
        },
        {
            "doubleSided" : true,
            "name" : "Bezel.editable",
            "pbrMetallicRoughness" : {
                "baseColorFactor" : [
                    0.008703598752617836,
                    0.008703598752617836,
                    0.008703598752617836,
                    0.9824169874191284
                ],
                "roughnessFactor" : 0.7432140111923218
            }
        },
        {
            "doubleSided" : true,
            "name" : "Lenses",
            "pbrMetallicRoughness" : {
                "baseColorFactor" : [
                    1,
                    1,
                    1,
                    0.9938510060310364
                ],
                "baseColorTexture" : {
                    "index" : 1,
                    "texCoord" : 0
                },
                "metallicFactor" : 0,
                "roughnessFactor" : 0.6932139992713928
            }
        },
        {
            "doubleSided" : true,
            "name" : "Body.editable",
            "pbrMetallicRoughness" : {
                "baseColorFactor" : [
                    0.4985716640949249,
                    0.4985716640949249,
                    0.4985716640949249,
                    1
                ],
                "roughnessFactor" : 0.17048700153827667
            }
        }
    ],
    "meshes" : [
        {
            "name" : "object.012",
            "primitives" : [
                {
                    "attributes" : {
                        "POSITION" : 0,
                        "NORMAL" : 1,
                        "TEXCOORD_0" : 2
                    },
                    "indices" : 3,
                    "material" : 0
                }
            ]
        },
        {
            "name" : "object.010",
            "primitives" : [
                {
                    "attributes" : {
                        "POSITION" : 4,
                        "NORMAL" : 5,
                        "TEXCOORD_0" : 6
                    },
                    "indices" : 7,
                    "material" : 1
                }
            ]
        },
        {
            "name" : "object.007",
            "primitives" : [
                {
                    "attributes" : {
                        "POSITION" : 8,
                        "NORMAL" : 9,
                        "TEXCOORD_0" : 10
                    },
                    "indices" : 11,
                    "material" : 2
                }
            ]
        },
        {
            "name" : "object.006",
            "primitives" : [
                {
                    "attributes" : {
                        "POSITION" : 12,
                        "NORMAL" : 13,
                        "TEXCOORD_0" : 14
                    },
                    "indices" : 15,
                    "material" : 3
                }
            ]
        },
        {
            "name" : "object.004",
            "primitives" : [
                {
                    "attributes" : {
                        "POSITION" : 16,
                        "NORMAL" : 17,
                        "TEXCOORD_0" : 18
                    },
                    "indices" : 19,
                    "material" : 4
                }
            ]
        },
        {
            "name" : "object.002",
            "primitives" : [
                {
                    "attributes" : {
                        "POSITION" : 20,
                        "NORMAL" : 21,
                        "TEXCOORD_0" : 22
                    },
                    "indices" : 23,
                    "material" : 5
                }
            ]
        }
    ],
    "textures" : [
        {
            "sampler" : 0,
            "source" : 0
        },
        {
            "sampler" : 0,
            "source" : 1
        }
    ],
    "images" : [
        {
            "bufferView" : 8,
            "mimeType" : "image/png",
            "name" : "screen"
        },
        {
            "bufferView" : 21,
            "mimeType" : "image/jpeg",
            "name" : "camera"
        }
    ],
    "accessors" : [
        {
            "bufferView" : 0,
            "componentType" : 5126,
            "count" : 737,
            "max" : [
                0.03734513372182846,
                0.11497736722230911,
                0.0005195029661990702
            ],
            "min" : [
                -0.033630792051553726,
                0.08396720141172409,
                -0.0011761675123125315
            ],
            "type" : "VEC3"
        },
        {
            "bufferView" : 1,
            "componentType" : 5126,
            "count" : 737,
            "type" : "VEC3"
        },
        {
            "bufferView" : 2,
            "componentType" : 5126,
            "count" : 737,
            "type" : "VEC2"
        },
        {
            "bufferView" : 3,
            "componentType" : 5123,
            "count" : 1092,
            "type" : "SCALAR"
        },
        {
            "bufferView" : 4,
            "componentType" : 5126,
            "count" : 110,
            "max" : [
                0.03539866581559181,
                0.14800532162189484,
                0.002878401894122362
            ],
            "min" : [
                -0.03153352439403534,
                0.002313291421160102,
                0.002701403107494116
            ],
            "type" : "VEC3"
        },
        {
            "bufferView" : 5,
            "componentType" : 5126,
            "count" : 110,
            "type" : "VEC3"
        },
        {
            "bufferView" : 6,
            "componentType" : 5126,
            "count" : 110,
            "type" : "VEC2"
        },
        {
            "bufferView" : 7,
            "componentType" : 5123,
            "count" : 384,
            "type" : "SCALAR"
        },
        {
            "bufferView" : 9,
            "componentType" : 5126,
            "count" : 64,
            "max" : [
                0.004373106174170971,
                0.10139498114585876,
                -0.003498832229524851
            ],
            "min" : [
                0.0005272857379168272,
                0.09759655594825745,
                -0.0034988331608474255
            ],
            "type" : "VEC3"
        },
        {
            "bufferView" : 10,
            "componentType" : 5126,
            "count" : 64,
            "type" : "VEC3"
        },
        {
            "bufferView" : 11,
            "componentType" : 5126,
            "count" : 64,
            "type" : "VEC2"
        },
        {
            "bufferView" : 12,
            "componentType" : 5123,
            "count" : 186,
            "type" : "SCALAR"
        },
        {
            "bufferView" : 13,
            "componentType" : 5126,
            "count" : 712,
            "max" : [
                0.03609707951545715,
                0.14841943979263306,
                0.0027012373320758343
            ],
            "min" : [
                -0.03223263472318649,
                0.0016942275688052177,
                -0.0034638033248484135
            ],
            "type" : "VEC3"
        },
        {
            "bufferView" : 14,
            "componentType" : 5126,
            "count" : 712,
            "type" : "VEC3"
        },
        {
            "bufferView" : 15,
            "componentType" : 5126,
            "count" : 712,
            "type" : "VEC2"
        },
        {
            "bufferView" : 16,
            "componentType" : 5123,
            "count" : 1266,
            "type" : "SCALAR"
        },
        {
            "bufferView" : 17,
            "componentType" : 5126,
            "count" : 192,
            "max" : [
                0.004328479990363121,
                0.1332966685295105,
                -0.003971385769546032
            ],
            "min" : [
                0.0005719112232327461,
                0.1070110946893692,
                -0.0044200727716088295
            ],
            "type" : "VEC3"
        },
        {
            "bufferView" : 18,
            "componentType" : 5126,
            "count" : 192,
            "type" : "VEC3"
        },
        {
            "bufferView" : 19,
            "componentType" : 5126,
            "count" : 192,
            "type" : "VEC2"
        },
        {
            "bufferView" : 20,
            "componentType" : 5123,
            "count" : 558,
            "type" : "SCALAR"
        },
        {
            "bufferView" : 22,
            "componentType" : 5126,
            "count" : 6246,
            "max" : [
                0.0371413417160511,
                0.14903126657009125,
                0.002187765436246991
            ],
            "min" : [
                -0.033278364688158035,
                0.0009739157394506037,
                -0.004803997930139303
            ],
            "type" : "VEC3"
        },
        {
            "bufferView" : 23,
            "componentType" : 5126,
            "count" : 6246,
            "type" : "VEC3"
        },
        {
            "bufferView" : 24,
            "componentType" : 5126,
            "count" : 6246,
            "type" : "VEC2"
        },
        {
            "bufferView" : 25,
            "componentType" : 5123,
            "count" : 12078,
            "type" : "SCALAR"
        }
    ],
    "bufferViews" : [
        {
            "buffer" : 0,
            "byteLength" : 8844,
            "byteOffset" : 0
        },
        {
            "buffer" : 0,
            "byteLength" : 8844,
            "byteOffset" : 8844
        },
        {
            "buffer" : 0,
            "byteLength" : 5896,
            "byteOffset" : 17688
        },
        {
            "buffer" : 0,
            "byteLength" : 2184,
            "byteOffset" : 23584
        },
        {
            "buffer" : 0,
            "byteLength" : 1320,
            "byteOffset" : 25768
        },
        {
            "buffer" : 0,
            "byteLength" : 1320,
            "byteOffset" : 27088
        },
        {
            "buffer" : 0,
            "byteLength" : 880,
            "byteOffset" : 28408
        },
        {
            "buffer" : 0,
            "byteLength" : 768,
            "byteOffset" : 29288
        },
        {
            "buffer" : 0,
            "byteLength" : 39267,
            "byteOffset" : 30056
        },
        {
            "buffer" : 0,
            "byteLength" : 768,
            "byteOffset" : 69324
        },
        {
            "buffer" : 0,
            "byteLength" : 768,
            "byteOffset" : 70092
        },
        {
            "buffer" : 0,
            "byteLength" : 512,
            "byteOffset" : 70860
        },
        {
            "buffer" : 0,
            "byteLength" : 372,
            "byteOffset" : 71372
        },
        {
            "buffer" : 0,
            "byteLength" : 8544,
            "byteOffset" : 71744
        },
        {
            "buffer" : 0,
            "byteLength" : 8544,
            "byteOffset" : 80288
        },
        {
            "buffer" : 0,
            "byteLength" : 5696,
            "byteOffset" : 88832
        },
        {
            "buffer" : 0,
            "byteLength" : 2532,
            "byteOffset" : 94528
        },
        {
            "buffer" : 0,
            "byteLength" : 2304,
            "byteOffset" : 97060
        },
        {
            "buffer" : 0,
            "byteLength" : 2304,
            "byteOffset" : 99364
        },
        {
            "buffer" : 0,
            "byteLength" : 1536,
            "byteOffset" : 101668
        },
        {
            "buffer" : 0,
            "byteLength" : 1116,
            "byteOffset" : 103204
        },
        {
            "buffer" : 0,
            "byteLength" : 52353,
            "byteOffset" : 104320
        },
        {
            "buffer" : 0,
            "byteLength" : 74952,
            "byteOffset" : 156676
        },
        {
            "buffer" : 0,
            "byteLength" : 74952,
            "byteOffset" : 231628
        },
        {
            "buffer" : 0,
            "byteLength" : 49968,
            "byteOffset" : 306580
        },
        {
            "buffer" : 0,
            "byteLength" : 24156,
            "byteOffset" : 356548
        }
    ],
    "samplers" : [
        {
            "magFilter" : 9729,
            "minFilter" : 9986
        }
    ],
    "buffers" : [
        {
            "byteLength" : 380704,
            "uri" : "data:application/octet-stream;base64,"
        }
    ]
}
