{
    "asset" : {
        "generator" : "Khronos glTF Blender I/O v1.5.6",
        "version" : "2.0"
    },
    "scene" : 0,
    "scenes" : [
        {
            "name" : "Scene",
            "nodes" : [
                0,
                1,
                2,
                3,
                4,
                5
            ]
        }
    ],
    "nodes" : [
        {
            "mesh" : 0,
            "name" : "Buttons"
        },
        {
            "mesh" : 1,
            "name" : "Screen"
        },
        {
            "mesh" : 2,
            "name" : "Flash"
        },
        {
            "mesh" : 3,
            "name" : "Bezel"
        },
        {
            "mesh" : 4,
            "name" : "Lenses"
        },
        {
            "mesh" : 5,
            "name" : "Body"
        }
    ],
    "materials" : [
        {
            "doubleSided" : true,
            "name" : "Buttons.editable",
            "pbrMetallicRoughness" : {
                "baseColorFactor" : [
                    0.10153963416814804,
                    0.10153963416814804,
                    0.10153963416814804,
                    0.36000001430511475
                ],
                "roughnessFactor" : 0.661395788192749
            }
        },
        {
            "doubleSided" : true,
            "name" : "Screen.editable",
            "pbrMetallicRoughness" : {
                "baseColorTexture" : {
                    "index" : 0,
                    "texCoord" : 0
                },
                "metallicFactor" : 0,
                "roughnessFactor" : 0
            }
        },
        {
            "doubleSided" : true,
            "name" : "Flash",
            "pbrMetallicRoughness" : {
                "baseColorFactor" : [
                    0.6399999856948853,
                    0.48371899127960205,
                    0.26791301369667053,
                    0.36000001430511475
                ],
                "metallicFactor" : 0,
                "roughnessFactor" : 0.6932139992713928
            }
        },
        {
            "doubleSided" : true,
            "name" : "Bezel.editable",
            "pbrMetallicRoughness" : {
                "baseColorFactor" : [
                    0.008703598752617836,
                    0.008703598752617836,
                    0.008703598752617836,
                    0.9824169874191284
                ],
                "roughnessFactor" : 0.7432140111923218
            }
        },
        {
            "doubleSided" : true,
            "name" : "Lenses",
            "pbrMetallicRoughness" : {
                "baseColorFactor" : [
                    1,
                    1,
                    1,
                    0.9938510060310364
                ],
                "baseColorTexture" : {
                    "index" : 1,
                    "texCoord" : 0
                },
                "metallicFactor" : 0,
                "roughnessFactor" : 0.6932139992713928
            }
        },
        {
            "doubleSided" : true,
            "name" : "Body.editable",
            "pbrMetallicRoughness" : {
                "baseColorFactor" : [
                    0.15096957981586456,
                    0.15096957981586456,
                    0.15096957981586456,
                    1
                ],
                "roughnessFactor" : 0.17048700153827667
            }
        }
    ],
    "meshes" : [
        {
            "name" : "object.012",
            "primitives" : [
                {
                    "attributes" : {
                        "POSITION" : 0,
                        "NORMAL" : 1,
                        "TEXCOORD_0" : 2
                    },
                    "indices" : 3,
                    "material" : 0
                }
            ]
        },
        {
            "name" : "object.010",
            "primitives" : [
                {
                    "attributes" : {
                        "POSITION" : 4,
                        "NORMAL" : 5,
                        "TEXCOORD_0" : 6
                    },
                    "indices" : 7,
                    "material" : 1
                }
            ]
        },
        {
            "name" : "object.007",
            "primitives" : [
                {
                    "attributes" : {
                        "POSITION" : 8,
                        "NORMAL" : 9,
                        "TEXCOORD_0" : 10
                    },
                    "indices" : 11,
                    "material" : 2
                }
            ]
        },
        {
            "name" : "object.006",
            "primitives" : [
                {
                    "attributes" : {
                        "POSITION" : 12,
                        "NORMAL" : 13,
                        "TEXCOORD_0" : 14
                    },
                    "indices" : 15,
                    "material" : 3
                }
            ]
        },
        {
            "name" : "object.004",
            "primitives" : [
                {
                    "attributes" : {
                        "POSITION" : 16,
                        "NORMAL" : 17,
                        "TEXCOORD_0" : 18
                    },
                    "indices" : 19,
                    "material" : 4
                }
            ]
        },
        {
            "name" : "object.002",
            "primitives" : [
                {
                    "attributes" : {
                        "POSITION" : 20,
                        "NORMAL" : 21,
                        "TEXCOORD_0" : 22
                    },
                    "indices" : 23,
                    "material" : 5
                }
            ]
        }
    ],
    "textures" : [
        {
            "sampler" : 0,
            "source" : 0
        },
        {
            "sampler" : 0,
            "source" : 1
        }
    ],
    "images" : [
        {
            "bufferView" : 8,
            "mimeType" : "image/png",
            "name" : "screen"
        },
        {
            "bufferView" : 21,
            "mimeType" : "image/jpeg",
            "name" : "camera"
        }
    ],
    "accessors" : [
        {
            "bufferView" : 0,
            "componentType" : 5126,
            "count" : 738,
            "max" : [
                0.3734513521194458,
                1.1404526233673096,
                0.00519502954557538
            ],
            "min" : [
                -0.33630791306495667,
                0.8303509950637817,
                -0.011761674657464027
            ],
            "type" : "VEC3"
        },
        {
            "bufferView" : 1,
            "componentType" : 5126,
            "count" : 738,
            "type" : "VEC3"
        },
        {
            "bufferView" : 2,
            "componentType" : 5126,
            "count" : 738,
            "type" : "VEC2"
        },
        {
            "bufferView" : 3,
            "componentType" : 5123,
            "count" : 1092,
            "type" : "SCALAR"
        },
        {
            "bufferView" : 4,
            "componentType" : 5126,
            "count" : 110,
            "max" : [
                0.3539866507053375,
                1.4707320928573608,
                0.028784018009901047
            ],
            "min" : [
                -0.3153352439403534,
                0.013811850920319557,
                0.027014032006263733
            ],
            "type" : "VEC3"
        },
        {
            "bufferView" : 5,
            "componentType" : 5126,
            "count" : 110,
            "type" : "VEC3"
        },
        {
            "bufferView" : 6,
            "componentType" : 5126,
            "count" : 110,
            "type" : "VEC2"
        },
        {
            "bufferView" : 7,
            "componentType" : 5123,
            "count" : 384,
            "type" : "SCALAR"
        },
        {
            "bufferView" : 9,
            "componentType" : 5126,
            "count" : 64,
            "max" : [
                0.04373106360435486,
                1.0046287775039673,
                -0.034988321363925934
            ],
            "min" : [
                0.005272857379168272,
                0.9666445255279541,
                -0.03498833253979683
            ],
            "type" : "VEC3"
        },
        {
            "bufferView" : 10,
            "componentType" : 5126,
            "count" : 64,
            "type" : "VEC3"
        },
        {
            "bufferView" : 11,
            "componentType" : 5126,
            "count" : 64,
            "type" : "VEC2"
        },
        {
            "bufferView" : 12,
            "componentType" : 5123,
            "count" : 186,
            "type" : "SCALAR"
        },
        {
            "bufferView" : 13,
            "componentType" : 5126,
            "count" : 712,
            "max" : [
                0.36097079515457153,
                1.4748733043670654,
                0.027012374252080917
            ],
            "min" : [
                -0.3223263621330261,
                0.00762121332809329,
                -0.03463803231716156
            ],
            "type" : "VEC3"
        },
        {
            "bufferView" : 14,
            "componentType" : 5126,
            "count" : 712,
            "type" : "VEC3"
        },
        {
            "bufferView" : 15,
            "componentType" : 5126,
            "count" : 712,
            "type" : "VEC2"
        },
        {
            "bufferView" : 16,
            "componentType" : 5123,
            "count" : 1266,
            "type" : "SCALAR"
        },
        {
            "bufferView" : 17,
            "componentType" : 5126,
            "count" : 192,
            "max" : [
                0.04328479990363121,
                1.3236455917358398,
                -0.03971385955810547
            ],
            "min" : [
                0.005719112232327461,
                1.060789942741394,
                -0.044200725853443146
            ],
            "type" : "VEC3"
        },
        {
            "bufferView" : 18,
            "componentType" : 5126,
            "count" : 192,
            "type" : "VEC3"
        },
        {
            "bufferView" : 19,
            "componentType" : 5126,
            "count" : 192,
            "type" : "VEC2"
        },
        {
            "bufferView" : 20,
            "componentType" : 5123,
            "count" : 558,
            "type" : "SCALAR"
        },
        {
            "bufferView" : 22,
            "componentType" : 5126,
            "count" : 6246,
            "max" : [
                0.3714134097099304,
                1.4809916019439697,
                0.021877653896808624
            ],
            "min" : [
                -0.33278363943099976,
                0.00041809515096247196,
                -0.04803998023271561
            ],
            "type" : "VEC3"
        },
        {
            "bufferView" : 23,
            "componentType" : 5126,
            "count" : 6246,
            "type" : "VEC3"
        },
        {
            "bufferView" : 24,
            "componentType" : 5126,
            "count" : 6246,
            "type" : "VEC2"
        },
        {
            "bufferView" : 25,
            "componentType" : 5123,
            "count" : 12078,
            "type" : "SCALAR"
        }
    ],
    "bufferViews" : [
        {
            "buffer" : 0,
            "byteLength" : 8856,
            "byteOffset" : 0
        },
        {
            "buffer" : 0,
            "byteLength" : 8856,
            "byteOffset" : 8856
        },
        {
            "buffer" : 0,
            "byteLength" : 5904,
            "byteOffset" : 17712
        },
        {
            "buffer" : 0,
            "byteLength" : 2184,
            "byteOffset" : 23616
        },
        {
            "buffer" : 0,
            "byteLength" : 1320,
            "byteOffset" : 25800
        },
        {
            "buffer" : 0,
            "byteLength" : 1320,
            "byteOffset" : 27120
        },
        {
            "buffer" : 0,
            "byteLength" : 880,
            "byteOffset" : 28440
        },
        {
            "buffer" : 0,
            "byteLength" : 768,
            "byteOffset" : 29320
        },
        {
            "buffer" : 0,
            "byteLength" : 39267,
            "byteOffset" : 30088
        },
        {
            "buffer" : 0,
            "byteLength" : 768,
            "byteOffset" : 69356
        },
        {
            "buffer" : 0,
            "byteLength" : 768,
            "byteOffset" : 70124
        },
        {
            "buffer" : 0,
            "byteLength" : 512,
            "byteOffset" : 70892
        },
        {
            "buffer" : 0,
            "byteLength" : 372,
            "byteOffset" : 71404
        },
        {
            "buffer" : 0,
            "byteLength" : 8544,
            "byteOffset" : 71776
        },
        {
            "buffer" : 0,
            "byteLength" : 8544,
            "byteOffset" : 80320
        },
        {
            "buffer" : 0,
            "byteLength" : 5696,
            "byteOffset" : 88864
        },
        {
            "buffer" : 0,
            "byteLength" : 2532,
            "byteOffset" : 94560
        },
        {
            "buffer" : 0,
            "byteLength" : 2304,
            "byteOffset" : 97092
        },
        {
            "buffer" : 0,
            "byteLength" : 2304,
            "byteOffset" : 99396
        },
        {
            "buffer" : 0,
            "byteLength" : 1536,
            "byteOffset" : 101700
        },
        {
            "buffer" : 0,
            "byteLength" : 1116,
            "byteOffset" : 103236
        },
        {
            "buffer" : 0,
            "byteLength" : 52353,
            "byteOffset" : 104352
        },
        {
            "buffer" : 0,
            "byteLength" : 74952,
            "byteOffset" : 156708
        },
        {
            "buffer" : 0,
            "byteLength" : 74952,
            "byteOffset" : 231660
        },
        {
            "buffer" : 0,
            "byteLength" : 49968,
            "byteOffset" : 306612
        },
        {
            "buffer" : 0,
            "byteLength" : 24156,
            "byteOffset" : 356580
        }
    ],
    "samplers" : [
        {
            "magFilter" : 9729,
            "minFilter" : 9986
        }
    ],
    "buffers" : [
        {
            "byteLength" : 380736,
            "uri" : "data:application/octet-stream;base64,"
        }
    ]
}
