{
    "asset" : {
        "generator" : "Khronos glTF Blender I/O v1.5.6",
        "version" : "2.0"
    },
    "scene" : 0,
    "scenes" : [
        {
            "name" : "Scene",
            "nodes" : [
                0
            ]
        }
    ],
    "nodes" : [
        {
            "mesh" : 0,
            "name" : "Suzanne"
        }
    ],
    "materials" : [
        {
            "doubleSided" : true,
            "name" : "Material.001.editable",
            "pbrMetallicRoughness" : {
                "baseColorFactor" : [
                    0.8000000715255737,
                    0.07400712370872498,
                    0.008722788654267788,
                    1
                ],
                "metallicFactor" : 0,
                "roughnessFactor" : 0.5
            }
        }
    ],
    "meshes" : [
        {
            "name" : "Suzanne",
            "primitives" : [
                {
                    "attributes" : {
                        "POSITION" : 0,
                        "NORMAL" : 1,
                        "TANGENT" : 2,
                        "TEXCOORD_0" : 3
                    },
                    "indices" : 4,
                    "material" : 0
                }
            ]
        }
    ],
    "accessors" : [
        {
            "bufferView" : 0,
            "componentType" : 5126,
            "count" : 3709,
            "max" : [
                0.11207123845815659,
                0.12965001165866852,
                0.07318705320358276
            ],
            "min" : [
                -0.11207124590873718,
                0.001493001007474959,
                -0.09484674781560898
            ],
            "type" : "VEC3"
        },
        {
            "bufferView" : 1,
            "componentType" : 5126,
            "count" : 3709,
            "type" : "VEC3"
        },
        {
            "bufferView" : 2,
            "componentType" : 5126,
            "count" : 3709,
            "type" : "VEC4"
        },
        {
            "bufferView" : 3,
            "componentType" : 5126,
            "count" : 3709,
            "type" : "VEC2"
        },
        {
            "bufferView" : 4,
            "componentType" : 5123,
            "count" : 11808,
            "type" : "SCALAR"
        }
    ],
    "bufferViews" : [
        {
            "buffer" : 0,
            "byteLength" : 44508,
            "byteOffset" : 0
        },
        {
            "buffer" : 0,
            "byteLength" : 44508,
            "byteOffset" : 44508
        },
        {
            "buffer" : 0,
            "byteLength" : 59344,
            "byteOffset" : 89016
        },
        {
            "buffer" : 0,
            "byteLength" : 29672,
            "byteOffset" : 148360
        },
        {
            "buffer" : 0,
            "byteLength" : 23616,
            "byteOffset" : 178032
        }
    ],
    "buffers" : [
        {
            "byteLength" : 201648,
            "uri" : "data:application/octet-stream;base64,"
        }
    ]
}
