{
    "asset" : {
        "generator" : "Khronos glTF Blender I/O v1.5.6",
        "version" : "2.0"
    },
    "scene" : 0,
    "scenes" : [
        {
            "name" : "Scene",
            "nodes" : [
                0
            ]
        }
    ],
    "nodes" : [
        {
            "mesh" : 0,
            "name" : "Suzanne"
        }
    ],
    "materials" : [
        {
            "doubleSided" : true,
            "name" : "Material.001.editable",
            "pbrMetallicRoughness" : {
                "baseColorFactor" : [
                    0.8000000715255737,
                    0.07400712370872498,
                    0.008722788654267788,
                    1
                ],
                "metallicFactor" : 0,
                "roughnessFactor" : 0.5
            }
        }
    ],
    "meshes" : [
        {
            "name" : "Suzanne.001",
            "primitives" : [
                {
                    "attributes" : {
                        "POSITION" : 0,
                        "NORMAL" : 1,
                        "TANGENT" : 2,
                        "TEXCOORD_0" : 3
                    },
                    "indices" : 4,
                    "material" : 0
                }
            ]
        }
    ],
    "accessors" : [
        {
            "bufferView" : 0,
            "componentType" : 5126,
            "count" : 3321,
            "max" : [
                1.325934886932373,
                1.5067821741104126,
                0.9835126996040344
            ],
            "min" : [
                -1.325934886932373,
                0.007208243478089571,
                -1.0181684494018555
            ],
            "type" : "VEC3"
        },
        {
            "bufferView" : 1,
            "componentType" : 5126,
            "count" : 3321,
            "type" : "VEC3"
        },
        {
            "bufferView" : 2,
            "componentType" : 5126,
            "count" : 3321,
            "type" : "VEC4"
        },
        {
            "bufferView" : 3,
            "componentType" : 5126,
            "count" : 3321,
            "type" : "VEC2"
        },
        {
            "bufferView" : 4,
            "componentType" : 5123,
            "count" : 11808,
            "type" : "SCALAR"
        }
    ],
    "bufferViews" : [
        {
            "buffer" : 0,
            "byteLength" : 39852,
            "byteOffset" : 0
        },
        {
            "buffer" : 0,
            "byteLength" : 39852,
            "byteOffset" : 39852
        },
        {
            "buffer" : 0,
            "byteLength" : 53136,
            "byteOffset" : 79704
        },
        {
            "buffer" : 0,
            "byteLength" : 26568,
            "byteOffset" : 132840
        },
        {
            "buffer" : 0,
            "byteLength" : 23616,
            "byteOffset" : 159408
        }
    ],
    "buffers" : [
        {
            "byteLength" : 183024,
            "uri" : "data:application/octet-stream;base64,"
        }
    ]
}
